<?xml version="1.0" standalone="no"?>
<!DOCTYPE svg PUBLIC "-//W3C//DTD SVG 1.1//EN" "http://www.w3.org/Graphics/SVG/1.1/DTD/svg11.dtd" >
<svg xmlns="http://www.w3.org/2000/svg">
<metadata>
Created by FontForge 20120731 at Mon Mar 27 07:46:03 2017
 By admin
</metadata>
<defs>
<font id="iconfont" horiz-adv-x="1024" >
  <font-face 
    font-family="iconfont"
    font-weight="500"
    font-stretch="normal"
    units-per-em="1024"
    panose-1="2 0 6 3 0 0 0 0 0 0"
    ascent="896"
    descent="-128"
    x-height="792"
    bbox="0 -217 1440 896"
    underline-thickness="0"
    underline-position="0"
    unicode-range="U+0078-E84D"
  />
<missing-glyph 
 />
    <glyph glyph-name=".notdef" 
 />
    <glyph glyph-name=".notdef" 
 />
    <glyph glyph-name=".null" horiz-adv-x="0" 
 />
    <glyph glyph-name="nonmarkingreturn" horiz-adv-x="341" 
 />
    <glyph glyph-name="x" unicode="x" horiz-adv-x="1001" 
d="M281 543q-27 -1 -53 -1h-83q-18 0 -36.5 -6t-32.5 -18.5t-23 -32t-9 -45.5v-76h912v41q0 16 -0.5 30t-0.5 18q0 13 -5 29t-17 29.5t-31.5 22.5t-49.5 9h-133v-97h-438v97zM955 310v-52q0 -23 0.5 -52t0.5 -58t-10.5 -47.5t-26 -30t-33 -16t-31.5 -4.5q-14 -1 -29.5 -0.5
t-29.5 0.5h-32l-45 128h-439l-44 -128h-29h-34q-20 0 -45 1q-25 0 -41 9.5t-25.5 23t-13.5 29.5t-4 30v167h911zM163 247q-12 0 -21 -8.5t-9 -21.5t9 -21.5t21 -8.5q13 0 22 8.5t9 21.5t-9 21.5t-22 8.5zM316 123q-8 -26 -14 -48q-5 -19 -10.5 -37t-7.5 -25t-3 -15t1 -14.5
t9.5 -10.5t21.5 -4h37h67h81h80h64h36q23 0 34 12t2 38q-5 13 -9.5 30.5t-9.5 34.5q-5 19 -11 39h-368zM336 498v228q0 11 2.5 23t10 21.5t20.5 15.5t34 6h188q31 0 51.5 -14.5t20.5 -52.5v-227h-327z" />
    <glyph glyph-name="tupian" unicode="&#xe601;" horiz-adv-x="1000" 
d="M266.5 388q63.5 0 108.5 45t45 108.5t-45 108.5t-108.5 45t-108.5 -45t-45 -108.5t45 -108.5t108.5 -45zM916 -38l-223 536q-4 10 -15.5 11t-17.5 -9l-258 -422l-77 126q-5 8 -15 8q-11 0 -16 -8l-163 -238q-6 -9 -1 -19t16 -10h753q10 0 15 8t2 17z" />
    <glyph glyph-name="qudiaoquanxuan" unicode="&#xe685;" 
d="M902 34h-535q-50 0 -85.5 36t-35.5 86v534q0 51 35.5 86.5t85.5 35.5h535q50 0 85.5 -35.5t35.5 -86.5v-534q0 -50 -35.5 -86t-85.5 -36zM941 657q0 30 -21 51.5t-52 21.5h-467q-31 0 -52.5 -21.5t-21.5 -51.5v-468q0 -30 21.5 -51.5t52.5 -21.5h467q31 0 52 21.5
t21 51.5v468zM819 -7q17 0 29 -12t12 -29t-12 -29t-29 -12h-594q-42 0 -72 30t-30 73v593q0 17 12 29t29 12t29 -12t12 -29v-552q0 -26 18 -44t43 -18h553v0zM655 -129q17 0 29 -12t12 -29t-12 -29t-29 -12h-553q-42 0 -72 30t-30 72v553q0 17 12 29t29 12t29 -12t12 -29
v-512q0 -25 18 -43t43 -18h512v0z" />
    <glyph glyph-name="all" unicode="&#xe696;" 
d="M461 410h25v25v218q0 101 -71 172t-172 71t-172 -71t-71 -172t71 -172t172 -71h218zM51 652.5q0 79.5 56.5 136t136 56.5t135.5 -56.5t56 -135.5v-218l26 26h-218q-79 0 -135.5 56t-56.5 135.5zM461 307l-26 26v-218q0 -79 -56 -135.5t-135.5 -56.5t-136 56.5t-56.5 136
t56.5 135.5t135.5 56h218zM0 115q0 -101 71 -172t172 -71t172 71t71 172v218v25h-25h-218q-101 0 -172 -71t-71 -172zM563 461l26 -26v218q0 79 56 135.5t135.5 56.5t136 -56.5t56.5 -136t-56.5 -135.5t-135.5 -56h-218zM1024 653q0 101 -71 172t-172 71t-172 -71t-71 -172
v-218v-25h25h218q101 0 172 71t71 172zM1024 115q0 101 -71 172t-172 71h-218h-25v-25v-218q0 -101 71 -172t172 -71q57 0 107 25q10 5 13.5 15t-1.5 19.5t-15 13t-19 -1.5q-40 -20 -85 -20q-80 0 -136 56.5t-56 135.5v218l-26 -26h218q79 0 135.5 -56t56.5 -136
q0 -28 -8 -54q-3 -10 2 -19.5t15 -12.5t19.5 2t12.5 15q10 34 10 69z" />
    <glyph glyph-name="back" unicode="&#xe697;" 
d="M364 423q-20 -18 -20 -44t21 -44l309 -271q7 -6 15.5 -5.5t14.5 7.5t5.5 15.5t-7.5 14.5l-309 271q-14 12 -1 24l310 281q7 6 7.5 15t-5.5 15.5t-15 7t-15 -5.5z" />
    <glyph glyph-name="category" unicode="&#xe699;" 
d="M134 640q10 0 17 6t7 15t-7 15.5t-17 6.5h-97q-11 0 -18 -6.5t-7 -15.5t7 -15t18 -6h97zM134 363q10 0 17 6t7 15t-7 15t-17 6h-97q-11 0 -18 -6t-7 -15t7 -15t18 -6h97zM134 85q10 0 17 6.5t7 15.5t-7 15t-17 6h-97q-11 0 -18 -6t-7 -15t7 -15.5t18 -6.5h97zM987 640
q11 0 18 6t7 15t-7 15.5t-18 6.5h-707q-10 0 -17 -6.5t-7 -15.5t7 -15t17 -6h707zM994 363q10 0 17 6t7 15t-7 15t-17 6h-708q-10 0 -17 -6t-7 -15t7 -15t17 -6h708zM997 85q10 0 17 6.5t7 15.5t-7 15t-17 6h-707q-11 0 -18 -6t-7 -15t7 -15.5t18 -6.5h707z" />
    <glyph glyph-name="delete" unicode="&#xe69d;" 
d="M973 687q11 0 18.5 7.5t7.5 18.5t-7.5 18.5t-18.5 7.5l-941 2q-10 0 -18 -8t-8 -19t8 -18.5t18 -7.5zM180 -96v-27h27l626 7h26v26v697q0 11 -7.5 18.5t-18.5 7.5t-18.5 -7.5t-7.5 -18.5v-697l26 27l-627 -7l27 -26v709q0 11 -7.5 19t-18.5 8t-19 -8t-8 -19v-709zM656 49
q0 -11 8 -18.5t19 -7.5t18.5 7.5t7.5 18.5v475q0 11 -7.5 18.5t-18.5 7.5t-19 -7.5t-8 -18.5v-475zM341 49q0 -11 8 -18.5t18.5 -7.5t18.5 7.5t8 18.5v475q0 11 -8 18.5t-18.5 7.5t-18.5 -7.5t-8 -18.5v-475zM499 49q0 -11 7.5 -18.5t18.5 -7.5t18.5 7.5t7.5 18.5v475
q0 11 -7.5 18.5t-18.5 7.5t-18.5 -7.5t-7.5 -18.5v-475zM392 779q0 11 7.5 19t18.5 8h205q11 0 18.5 -8t7.5 -19v-55h53v55q0 33 -23 56t-56 23h-205q-32 0 -55 -23t-23 -56v-48h52v48z" />
    <glyph glyph-name="viewlist" unicode="&#xe6b5;" 
d="M147 846h200q31 0 53 -22t22 -53v-224q0 -32 -22 -54t-53 -22h-200q-32 0 -54 22t-22 54v224q0 31 22 53t54 22zM21 547q0 -52 37 -89t89 -37h200q52 0 89 37t37 89v224q0 52 -37 88.5t-89 36.5h-200q-52 0 -89 -36.5t-37 -88.5v-224zM147 297h200q31 0 53 -22t22 -54
v-224q0 -31 -22 -53t-53 -22h-200q-32 0 -54 22t-22 53v224q0 32 22 54t54 22zM21 -3q0 -52 37 -88.5t89 -36.5h200q52 0 89 36.5t37 88.5v224q0 52 -37 89t-89 37h-200q-52 0 -89 -37t-37 -89v-224zM999 746q10 0 17.5 7.5t7.5 17.5t-7.5 17.5t-17.5 7.5h-426
q-11 0 -18 -7.5t-7 -17.5t7 -17.5t18 -7.5h426zM999 621q10 0 17.5 7.5t7.5 18t-7.5 17.5t-17.5 7h-426q-11 0 -18 -7t-7 -17.5t7 -18t18 -7.5h426zM999 496q10 0 17.5 7.5t7.5 18t-7.5 17.5t-17.5 7h-426q-11 0 -18 -7t-7 -17.5t7 -18t18 -7.5h426zM999 222q10 0 17.5 7
t7.5 17.5t-7.5 18t-17.5 7.5h-426q-11 0 -18 -7.5t-7 -18t7 -17.5t18 -7h426zM999 97q10 0 17.5 7t7.5 17.5t-7.5 18t-17.5 7.5h-426q-11 0 -18 -7.5t-7 -18t7 -17.5t18 -7h426zM999 -28q10 0 17.5 7.5t7.5 17.5t-7.5 17.5t-17.5 7.5h-426q-11 0 -18 -7.5t-7 -17.5t7 -17.5
t18 -7.5h426z" />
    <glyph glyph-name="fanhui47" unicode="&#xe63e;" 
d="M831 95h-91h-296v-136v0q0 -10 -7 -16.5t-16.5 -6.5t-16.5 6l-317 296l-1 1q-7 6 -7 15.5t7 16.5h0.5h0.5l317 295q3 4 8 5q4 2 9 2q10 0 16.5 -6.5t6.5 -15.5v-137h250v228q0 9 7 15.5t16 6.5h205q9 0 16 -6.5t7 -15.5v-433q0 -47 -33.5 -80.5t-80.5 -33.5zM899 300v319
h-159v-228q0 -9 -7 -16t-16 -7h-296q-9 0 -16 7t-7 16v107l-261 -243l261 -245v108q0 10 7 16.5t16 6.5h228v0h57h91q102 0 102 102v57v0v0z" />
    <glyph glyph-name="search" unicode="&#xe693;" 
d="M984 -43l-127 127q66 103 66 225q0 113 -56 208.5t-151.5 151.5t-208.5 56t-209 -56t-151.5 -151.5t-55.5 -208.5t55.5 -209t151.5 -151.5t209 -55.5q160 0 279 107l120 -120q16 -16 39 -16t39 16t16 38.5t-16 38.5zM509.5 -41q-94.5 0 -174.5 46.5t-126 126.5t-46 174
t46 174t126 126.5t174.5 46.5t174 -46.5t126 -126.5t46.5 -174t-46.5 -174t-126 -126.5t-174 -46.5z" />
    <glyph glyph-name="tupianposun" unicode="&#xe6db;" 
d="M812.5 276q-69.5 0 -118.5 -49t-49 -118.5t49 -119t118.5 -49.5t118.5 49.5t49 119t-49 118.5t-118.5 49zM788 191q0 11 7.5 18t17.5 7t17.5 -7t7.5 -18v-94q0 -10 -7.5 -17.5t-17.5 -7.5t-17.5 7.5t-7.5 17.5v94zM813 0q-11 0 -19 8t-8 19.5t8 19.5t19 8t19 -8t8 -19.5
t-8 -19.5t-19 -8zM647 227l-49 52q-10 12 -25 12q-11 0 -25 -11l-37 -31q-13 -9 -22 -9q-13 0 -22 8q-4 3 -8 8l-106 114q-13 15 -33 15q-19 0 -32 -16l-196 -236v447q0 12 6 20.5t14 8.5h781q8 0 13.5 -8.5t5.5 -20.5v-294q22 -12 40 -29v326q0 28 -17.5 47t-42.5 19h-780
q-25 0 -42.5 -19t-17.5 -47v-543q0 -27 17.5 -46.5t42.5 -19.5h547q-50 58 -50 134q0 66 38 119z" />
    <glyph glyph-name="hricon41" unicode="&#xe642;" 
d="M536 402q-10 9 -24 9t-24 -9l-156 -156q-9 -10 -9 -24q0 -7 2 -13q9 -20 31 -20h312q22 0 30.5 20.5t-6.5 36.5l-156 156v0zM536 402z" />
    <glyph glyph-name="icondownload" unicode="&#xe714;" 
d="M996 -140h-968q-11 0 -19.5 8.5t-8.5 19.5v0q0 12 8.5 20t19.5 8h968q11 0 19.5 -8t8.5 -20v0q0 -11 -8.5 -19.5t-19.5 -8.5zM927 508v0q-8 7 -21 7t-20 -7l-348 -346v694q0 12 -7.5 20t-18.5 8t-18.5 -8t-7.5 -20v-694l-348 346q-7 7 -20 7t-20.5 -7.5t-7.5 -19.5t7 -21
l395 -395q2 -2 5 -2l2 -3q12 -3 23 0l3 3l5 2l394 395q10 9 10.5 21t-7.5 20z" />
    <glyph glyph-name="photos_line" unicode="&#xe603;" 
d="M760.5 576q35.5 0 61 -25t25.5 -61t-25.5 -61.5t-61 -25.5t-61 25.5t-25.5 61.5t25.5 61t61 25zM510.5 794q-251.5 0 -378.5 -127t-127 -378.5t127 -378.5t378.5 -127t378.5 127t127 378.5t-127 378.5t-378.5 127zM149 649q120 120 361.5 120t361 -119.5t119.5 -361.5
q0 -142 -42 -243l-225 145l-189 -181l228 -155q-14 -6 -32 -13l-492 316l-152 -144q-58 109 -58 275q0 242 120 362v-1z" />
    <glyph glyph-name="zhankai" unicode="&#xe6b4;" 
d="M712 388l-200 -200l-200 200h400z" />
    <glyph glyph-name="search1" unicode="&#xe637;" 
d="M349 688q-26 -11 -50 -27q-24 -17 -43 -36v0v0q-19 -19 -36 -43v0q-15 -23 -27 -50q-4 -10 0 -19.5t14 -13.5q9 -4 18.5 0t13.5 13q9 22 22 42v0q15 22 30 36q17 17 36.5 30t40.5 22q10 4 14 13.5t0 19.5q-4 9 -14 13t-19 0v0zM989 -52v0l-179 180q44 53 71 116
q34 82 34 174q0 90 -34 171l-1 2q-33 81 -96 145l-2 3q-63 63 -147 98v0v0q-82 34 -172 34q-92 0 -174.5 -35t-145.5 -97q-64 -65 -98 -148t-34 -173q0 -89 33 -172l1 -2q34 -83 98 -147v0q64 -64 147 -98v0q82 -35 172.5 -35t172.5 35q63 25 117 70l179 -180
q12 -12 29.5 -12t28.5 12q13 13 12.5 30t-12.5 29v0zM724 156v0v0l-1 -1q-52 -52 -119 -79q-67 -29 -141 -29t-141 29v0q-67 27 -120 80v0v0q-52 52 -81 120v2q-27 67 -27 140q0 74 27 141q29 69 81 121q51 51 118.5 79.5t142.5 28.5q74 0 141 -28q67 -27 120 -80l2 -2
q51 -53 78 -119l1 -2q27 -68 27 -139q0 -74 -28 -142q-27 -68 -80 -120v0zM730 443v0q-10 0 -17 -7.5t-7 -17.5q0 -50 -19 -93v-2q-20 -46 -53 -77q-33 -35 -78 -53q-44 -19 -93 -19q-11 0 -18 -7t-7 -17.5t7 -18t18 -7.5q57 0 112 23q54 22 95 63q40 41 63 94v1
q23 55 23 113q0 10 -7.5 17.5t-18.5 7.5v0z" />
    <glyph glyph-name="eye" unicode="&#xe600;" horiz-adv-x="1452" 
d="M105 147q-10 0 -17 7t-7 17t7 17q134 128 296 202q185 85 376 85q193 0 355 -69t318 -218q7 -7 7 -17t-6.5 -17t-16.5 -7t-17 6q-148 142 -302 208t-337 66q-169 0 -336.5 -71.5t-303.5 -202.5q-7 -6 -16 -6zM763 542q-10 0 -17 7t-7 17v279q0 10 7 17t17 7t17 -7t7 -17
v-279q0 -10 -7 -17t-17 -7zM448 495q-16 0 -22 15l-93 238q-3 9 0.5 18t12.5 12q10 4 18.5 0t12.5 -13l93 -238q4 -9 0 -18t-13 -12q-6 -2 -9 -2zM187 338q-11 0 -18 8l-155 167q-7 7 -6.5 17t7.5 16.5t17 6t17 -7.5l155 -167q7 -7 6.5 -16.5t-7.5 -16.5t-16 -7zM749 368
q-92 0 -161 -61q43 -2 73 -33t30 -75t-31.5 -75.5t-76.5 -31.5q-43 0 -74 30q2 -98 72 -166.5t168 -68.5q100 0 170.5 70.5t70.5 170t-71 170t-170 70.5z" />
    <glyph glyph-name="viewgrid" unicode="&#xe689;" 
d="M951 -128h-293h-73v73v293v73h73h366v-73v-293v-73h-73zM951 238h-293v-293h293v293zM658 457h-73v73v293v73h73h366v-73v-293v-73h-73h-293zM951 823h-293v-293h293v293zM73 -128h-73v73v293v73h73h293h73v-73v-366h-73h-293zM366 238h-293v-293h293v293zM73 457h-73v73
v293v73h73h293h73v-73v-366h-73h-293zM366 823h-293v-293h293v293z" />
    <glyph glyph-name="toolbar-bad" unicode="&#xe62d;" 
d="M484 350q-2 0 -6 -0.5t-15.5 -3.5t-22 -8.5t-23.5 -17.5t-21 -29q-7 -2 -19 -5.5t-44 -9.5t-59 -7.5t-55.5 5t-42.5 22.5q-20 45 -27 82l-37 281q1 1 -0.5 7.5t7.5 14.5t28 10l258 37l-5 59l-335 -57q-2 0 -4.5 -0.5t-10 -4t-11 -12t-7.5 -25t1 -42.5l98 -668
q4 0 10.5 -1t26.5 -2t35 1l264 7l71 247q1 -1 1.5 12t-1.5 30.5t-6.5 35.5t-17 30.5t-30.5 11.5zM931 794h-331v-79l308 2l3 -209q-47 -1 -120.5 -34t-123 -63.5t-60.5 -40.5q-6 -14 -2.5 -28.5t13 -29.5t20 -26.5t18.5 -19.5l8 -7q-86 -227 -98 -259q24 2 112.5 4.5
t165.5 3.5l76 2q22 -4 40 11t25 29t7 17v670q2 49 -48 56zM196 550.5q0 -30.5 21.5 -52t51.5 -21.5t51.5 21.5t21.5 52t-21.5 51.5t-51.5 21t-51.5 -21t-21.5 -51.5z" />
    <glyph glyph-name="umbrella" unicode="&#xe84d;" 
d="M544 423v-332q0 -59 -43.5 -102.5t-103 -43.5t-103 43.5t-43.5 102.5q0 15 11 26t26 11t26 -11t11 -26q0 -28 22 -50.5t50.5 -22.5t51 22.5t22.5 50.5v332q19 6 36.5 6t36.5 -6zM983 407q0 -7 -5.5 -12.5t-12.5 -5.5t-14 6q-28 26 -53 39t-58 13q-39 0 -73 -21t-59 -55
q-4 -6 -10 -16t-8 -14q-7 -10 -16 -10q-11 0 -17 10q-2 4 -8 14t-10 16q-25 34 -59 55t-73 21t-72.5 -21t-58.5 -55q-4 -6 -10 -16t-8 -14q-7 -10 -17 -10t-16 10q-2 4 -8 14t-10 16q-25 34 -59 55t-73 21q-33 0 -58.5 -13t-53.5 -39q-7 -6 -13 -6q-7 0 -12.5 5.5t-5.5 12.5
v4q26 105 99 183t170.5 117t205.5 39q80 0 157 -23t141 -65t111 -107t66 -144q1 -1 1 -4v0zM544 823v-56q-24 1 -36.5 1t-36.5 -1v56q0 15 11 25.5t25.5 10.5t25.5 -10.5t11 -25.5z" />
    <glyph glyph-name="focus" unicode="&#xe628;" 
d="M882 522q-74 73 -169 112.5t-199 39.5t-199 -39.5t-169 -112.5l-136 -136l132 -131q74 -74 169 -113.5t199 -39.5t199 39.5t169 113.5l136 135zM854 279q-69 -69 -158 -106t-186 -37t-186 37t-158 106l-107 107l111 112q69 68 158 105t186 37t186 -37t158 -105l107 -108z
M506.5 606q-90.5 0 -154.5 -64t-64 -154.5t64 -154.5t154.5 -64t154.5 64t64 154.5t-64 154.5t-154.5 64zM506.5 203q-76.5 0 -130.5 54t-54 130.5t54 130.5t130.5 54t130.5 -54t54 -130.5t-54 -130.5t-130.5 -54zM499 696q5 -5 12.5 -5t12.5 5l68 68q5 5 5 12.5t-5 12.5
t-12 5t-12 -5l-39 -40v130q0 7 -5 12t-12.5 5t-12.5 -5t-5 -12v-130l-39 40q-5 5 -12 5t-12 -5t-5 -12.5t5 -12.5zM524 72q-5 5 -12.5 5t-12.5 -5l-68 -68q-5 -5 -5 -12.5t5 -12.5t12 -5t12 5l39 40v-130q0 -7 5 -12t12.5 -5t12.5 5t5 12v130l39 -40q5 -5 12 -5t12 5t5 12.5
t-5 12.5z" />
    <glyph glyph-name="siglyphumbrellaclose" unicode="&#xe627;" horiz-adv-x="1088" 
d="M642 196v-67h60l-196 641v98q0 11 -7.5 19t-18.5 8t-19 -8t-8 -19v-98l-198 -641h61v67h69v-67h65v-227q0 -11 9.5 -18.5t21 -7.5t20.5 7.5t9 18.5v227h62v67h70v0z" />
    <glyph glyph-name="qudiaoquanxuan1" unicode="&#xe647;" 
d="M902 118h-535q-50 0 -85.5 36t-35.5 86v534q0 51 35.5 86.5t85.5 35.5h535q50 0 85.5 -35.5t35.5 -86.5v-534q0 -50 -35.5 -86t-85.5 -36zM941 741q0 30 -21 51.5t-52 21.5h-467q-31 0 -52.5 -21.5t-21.5 -51.5v-468q0 -30 21.5 -51.5t52.5 -21.5h467q31 0 52 21.5
t21 51.5v468zM819 77q17 0 29 -12t12 -29t-12 -29t-29 -12h-594q-42 0 -72 30t-30 73v593q0 17 12 29t29 12t29 -12t12 -29v-552q0 -26 18 -44t43 -18h553zM655 -45q17 0 29 -12t12 -29t-12 -29t-29 -12h-553q-42 0 -72 30t-30 72v553q0 17 12 29t29 12t29 -12t12 -29v-512
q0 -25 18 -43t43 -18h512zM901 508q0 -17 -12 -29t-29 -12h-450q-17 0 -29 12t-12 29t12 29t29 12h450q17 0 29 -12t12 -29z" />
    <glyph glyph-name="quanxuan" unicode="&#xe649;" 
d="M902 118h-535q-50 0 -85.5 36t-35.5 86v534q0 51 35.5 86.5t85.5 35.5h535q50 0 85.5 -35.5t35.5 -86.5v-534q0 -50 -35.5 -86t-85.5 -36zM941 741q0 30 -21 51.5t-52 21.5h-467q-31 0 -52.5 -21.5t-21.5 -51.5v-468q0 -30 21.5 -51.5t52.5 -21.5h467q31 0 52 21.5
t21 51.5v468zM602 355q-7 -7 -18 -8q-20 -11 -36 5l-130 130q-9 9 -9 21.5t9 21.5l14 15q9 9 22 9t21 -9l98 -98l217 217q9 9 21.5 9t21.5 -9l15 -14q9 -9 9 -22t-9 -22zM819 77q17 0 29 -12t12 -29t-12 -29t-29 -12h-594q-42 0 -72 30t-30 73v593q0 17 12 29t29 12t29 -12
t12 -29v-552q0 -26 18 -44t43 -18h553zM655 -45q17 0 29 -12t12 -29t-12 -29t-29 -12h-553q-42 0 -72 30t-30 72v553q0 17 12 29t29 12t29 -12t12 -29v-512q0 -25 18 -43t43 -18h512z" />
    <glyph glyph-name="fanhui" unicode="&#xe6f6;" 
d="M911.5 -17q-10.5 10 -24.5 10h-343q-13 0 -23.5 10.5t-10.5 23.5v369h267q21 0 32 19q10 18 -3 37l-320 396q-13 14 -29 14t-27 -14l-319 -396q-14 -16 -3 -37q10 -19 32 -19h270v-439q0 -20 15 -35.5t36 -15.5h426q15 0 25 10t10 24v19q0 14 -10.5 24z" />
    <glyph glyph-name="focus1" unicode="&#xe724;" 
d="M1004 404h-104q-8 149 -113.5 254.5t-254.5 113.5v104q0 8 -6 14t-14 6t-14 -6t-6 -14v-104q-149 -8 -254.5 -113.5t-113.5 -254.5h-104q-8 0 -14 -6t-6 -14t6 -14t14 -6h104q8 -149 113.5 -254.5t254.5 -113.5v-104q0 -8 6 -14t14 -6t14 6t6 14v104q149 8 254.5 113.5
t113.5 254.5h104q8 0 14 6t6 14t-6 14t-14 6zM512 36q-94 0 -174.5 46.5t-127 127t-46.5 174.5t46.5 174.5t127 127t174.5 46.5t174.5 -46.5t127 -127t46.5 -174.5t-46.5 -174.5t-127 -127t-174.5 -46.5zM512 602q-90 0 -154 -64t-64 -154t64 -154t154 -64t154 64t64 154
t-64 154t-154 64zM688 404h-156v156q62 -7 105.5 -50.5t50.5 -105.5zM492 560v-156h-156q7 62 50.5 105.5t105.5 50.5zM336 364h156v-156q-62 7 -105.5 50.5t-50.5 105.5zM532 208v156h156q-7 -62 -50.5 -105.5t-105.5 -50.5zM429 643q3 0 6 1q37 11 77 11q8 0 14 6t6 14.5
t-6 14.5t-14 6q-46 0 -89 -13q-8 -2 -12 -9.5t-2 -15.5q5 -15 20 -15zM359 608q7 4 8.5 12.5t-3.5 15.5t-13 8.5t-15 -3.5q-64 -43 -100 -111.5t-36 -145.5q0 -8 6 -14t14.5 -6t14.5 6t6 14q0 67 31 126.5t87 97.5z" />
    <glyph glyph-name="empty" unicode="&#xe606;" horiz-adv-x="1253" 
d="M400 336.5q-23 4.5 -36 22t-8.5 38.5t24.5 32.5t43.5 7.5t36.5 -22t8 -38.5t-25 -32.5t-43 -7.5zM457 531q5 21 24.5 33t43 7.5t36.5 -22t8 -38.5t-24.5 -33t-43 -7.5t-36.5 22.5t-8 39v-1zM558.5 666q4.5 21 24.5 32.5t43 7t36 -22t8.5 -38.5t-24.5 -32.5t-43 -7.5
t-36 22t-8.5 39zM1159 476l-270 -371q-17 -23 -41.5 -53.5t-69.5 -75.5t-77 -61q-106 -53 -213 0l-422 265q-41 34 -51.5 86t7.5 106l16 46l120 -73h-1q137 -86 185 -111q15 -8 39.5 -20t49 -23.5t46.5 -21.5t36 -16l14 -6q-21 -32 -26 -55t3 -46q1 -6 8.5 -16t13.5 -14
q5 -9 19 -18.5t31 -15.5q22 -7 49.5 4t51.5 30.5t44.5 41t32 36t11.5 15.5l361 478l-533 230l-303 -416q-8 -11 -20.5 -17t-25.5 -1q-10 4 -16.5 10t-6.5 14t0.5 13.5t6 15t6.5 11.5t7 10l311 419q38 24 73 17l524 -206q22 -8 38 -17t27 -17.5t16 -18.5t7.5 -18t-1.5 -20.5
t-7 -20.5t-13 -22.5t-16.5 -23t-20 -26t-20.5 -27.5zM910 480l-150 62q-19 8 -26.5 26t1.5 35l1 2q9 17 29 23.5t39 -1.5l150 -62q19 -8 26 -26t-2 -35l-1 -2q-9 -17 -28.5 -23.5t-38.5 1.5v0zM801 336l-147 67q-18 9 -24.5 27t2.5 35l2 2q9 17 29 22.5t39 -2.5l147 -68
q19 -8 25.5 -26.5t-3.5 -34.5l-1 -2q-10 -17 -30 -23t-39 3v0zM692 191l-145 71q-18 9 -24 27.5t4 34.5l1 2q11 17 31 22t39 -4l144 -71q19 -9 25 -27t-5 -35l-1 -2q-10 -17 -30.5 -22t-38.5 4z" />
    <glyph glyph-name="hide" unicode="&#xe69f;" 
d="M94 246q-8 0 -11 2q-12 5 -18 17t-1 25l66 180q5 13 16.5 18.5t24.5 1.5q13 -5 18.5 -17t0.5 -25l-65 -181q-8 -21 -31 -21zM362 139h-5q-13 3 -20.5 13.5t-5.5 23.5l34 189q2 13 12.5 20.5t24 5t21 -13t4.5 -23.5l-33 -189q-3 -11 -12.5 -18.5t-19.5 -7.5zM662 139
q-12 0 -20.5 7.5t-11.5 19.5l-33 189q-3 13 4.5 24t21 13t24 -5t12.5 -21l35 -190q3 -13 -4.5 -23.5t-20.5 -13.5h-7zM930 246q-23 0 -31 21l-65 181q-5 12 1 24.5t18 17.5q12 4 24.5 -1.5t16.5 -18.5l66 -180q5 -12 -1 -24.5t-18 -17.5q-2 0 -6 -1t-5 -1zM512 320
q-78 0 -148.5 15t-119.5 37.5t-91.5 53t-68 56.5t-45.5 54t-26.5 40t-9.5 19q-5 12 -0.5 24.5t16.5 17.5t24.5 0.5t17.5 -16.5q4 -9 8 -16.5t23.5 -34t40.5 -47.5t59.5 -48.5t81.5 -46t105.5 -31.5t132.5 -13t132.5 13t105.5 31.5t81.5 46t59.5 48.5t40.5 47.5t23.5 34
t8 16.5q5 12 17.5 17t24.5 -1q12 -5 17 -17.5t-1 -24.5q-3 -7 -9.5 -19t-26.5 -40t-45.5 -54t-68 -56.5t-91.5 -53t-119.5 -37.5t-148.5 -15z" />
    <glyph glyph-name="selected" unicode="&#xe688;" 
d="M136 65h752v638zM652 150l-37 -37l-130 129l37 38l93 -93l176 176l37 -37l-176 -176v0z" />
  </font>
</defs>
</svg>
