<?xml version="1.0" standalone="no"?><!DOCTYPE svg PUBLIC "-//W3C//DTD SVG 1.1//EN" "http://www.w3.org/Graphics/SVG/1.1/DTD/svg11.dtd"><svg t="1520487971514" class="icon" style="" viewBox="0 0 1024 1024" version="1.1" xmlns="http://www.w3.org/2000/svg" p-id="2168" xmlns:xlink="http://www.w3.org/1999/xlink" width="200" height="200"><defs><style type="text/css"></style></defs><path d="M412 412H64V136c0-39.7 32.3-72 72-72h276v348z m-276-72h204V136H136v204zM376 960H226c-19.9 0-36-16.1-36-36s16.1-36 36-36h150c19.9 0 36 16.1 36 36s-16.1 36-36 36zM100 824c-19.9 0-36-16.1-36-36V648c0-19.9 16.1-36 36-36s36 16.1 36 36v140c0 19.9-16.1 36-36 36z" fill="#FF9800" p-id="2169"></path><path d="M960 412H612V64h276c39.7 0 72 32.3 72 72v276z m-276-72h204V136H684v204z" fill="#FF5722" p-id="2170"></path><path d="M888 960H612V612h348v276c0 39.7-32.3 72-72 72z m-204-72h204V684H684v204z" fill="#FFEB3B" p-id="2171"></path><path d="M341 804h-85c-19.9 0-36-16.1-36-36v-85c0-19.9 16.1-36 36-36h121v121c0 19.9-16.1 36-36 36z" fill="#FF5722" p-id="2172"></path><path d="M512 960c-19.9 0-36-16.1-36-36V631.5c0-19.9 16.1-36 36-36s36 16.1 36 36V924c0 19.9-16.1 36-36 36zM512 417.5c-19.9 0-36-16.1-36-36V100c0-19.9 16.1-36 36-36s36 16.1 36 36v281.5c0 19.9-16.1 36-36 36zM924 548H100c-19.9 0-36-16.1-36-36s16.1-36 36-36h824c19.9 0 36 16.1 36 36s-16.1 36-36 36z" fill="#F9CE1D" p-id="2173"></path></svg>